<?xml version="1.0" standalone="no"?>
<!DOCTYPE svg PUBLIC "-//W3C//DTD SVG 20010904//EN"
 "http://www.w3.org/TR/2001/REC-SVG-20010904/DTD/svg10.dtd">
<svg version="1.0" xmlns="http://www.w3.org/2000/svg"
 width="225.000000pt" height="225.000000pt" viewBox="0 0 225.000000 225.000000"
 preserveAspectRatio="xMidYMid meet">
<metadata>
Created by potrace 1.14, written by Peter Selinger 2001-2017
</metadata>
<g transform="translate(0.000000,225.000000) scale(0.100000,-0.100000)"
fill="#000000" stroke="none">
<path d="M963 2028 c-35 -5 -63 -14 -63 -19 0 -6 38 -86 85 -178 l85 -169 0
-103 0 -102 -26 24 c-39 36 -124 170 -190 298 -32 63 -77 135 -100 159 l-41
46 -137 -60 c-80 -34 -144 -68 -152 -80 -13 -19 -10 -34 37 -160 59 -160 79
-243 79 -332 0 -85 -19 -127 -91 -193 l-60 -57 3 -398 c3 -451 0 -432 85 -474
39 -20 56 -21 282 -18 l240 3 55 54 55 55 60 -58 61 -57 247 3 c372 4 351 -26
349 508 -1 216 -6 382 -11 392 -6 9 -29 30 -52 47 -63 46 -87 99 -86 191 1
103 17 173 75 328 31 84 48 142 44 156 -4 18 -35 36 -147 84 -77 34 -144 62
-149 62 -20 0 -80 -87 -140 -202 -75 -142 -129 -228 -176 -281 l-34 -37 0 105
0 105 85 170 c46 93 81 171 77 174 -38 23 -237 31 -349 14z"/>
</g>
</svg>
